<?xml version="1.0" encoding="UTF-8" standalone="no"?>
<svg
   xmlns:dc="http://purl.org/dc/elements/1.1/"
   xmlns:cc="http://creativecommons.org/ns#"
   xmlns:rdf="http://www.w3.org/1999/02/22-rdf-syntax-ns#"
   xmlns:svg="http://www.w3.org/2000/svg"
   xmlns="http://www.w3.org/2000/svg"
   xmlns:sodipodi="http://sodipodi.sourceforge.net/DTD/sodipodi-0.dtd"
   xmlns:inkscape="http://www.inkscape.org/namespaces/inkscape"
   version="1.1"
   x="0px"
   y="0px"
   viewBox="0 0 100 100"
   stroke="#7DF9FF"
   fill="#7DF9FF"
   enable-background="new 0 0 100 100"
   xml:space="preserve"
   id="svg1536"
   sodipodi:docname="playerrunt-inkscape.svg"
   inkscape:version="1.0.2 (e86c8708, 2021-01-15)"><metadata
     id="metadata1542"><rdf:RDF><cc:Work
         rdf:about=""><dc:format>image/svg+xml</dc:format><dc:type
           rdf:resource="http://purl.org/dc/dcmitype/StillImage" /><dc:title></dc:title></cc:Work></rdf:RDF></metadata><defs
     id="defs1540" /><sodipodi:namedview
     pagecolor="#ffffff"
     bordercolor="#666666"
     borderopacity="1"
     objecttolerance="10"
     gridtolerance="10"
     guidetolerance="10"
     inkscape:pageopacity="0"
     inkscape:pageshadow="2"
     inkscape:window-width="1238"
     inkscape:window-height="847"
     id="namedview1538"
     showgrid="false"
     inkscape:zoom="3.4936653"
     inkscape:cx="18.48696"
     inkscape:cy="68.863889"
     inkscape:window-x="0"
     inkscape:window-y="26"
     inkscape:window-maximized="0"
     inkscape:current-layer="g410"
     inkscape:document-rotation="0" /><g
     inkscape:groupmode="layer"
     id="layer3"
     inkscape:label="Layer 1"
     style="display:none;opacity:1"><rect
       x="-455.255"
       y="416.258"
       width="5.941"
       height="21.757999"
       id="rect1486" /><path
       d="m 3,-395.238 v 38.438 c 0,2.63 2.131,4.762 4.761,4.762 h 84.663 c 2.627,0 4.76,-2.132 4.76,-4.762 v -38.438 c 0,-2.63 -2.133,-4.762 -4.76,-4.762 H 7.761 C 5.131,-400 3,-397.868 3,-395.238 Z m 8.502,23.339 v -6.375 c 0,-0.807 0.56,-1.46 1.251,-1.46 0.69,0 1.25,0.654 1.25,1.46 v 6.375 c 0,0.807 -0.56,1.461 -1.25,1.461 -0.69,0 -1.251,-0.655 -1.251,-1.461 z m -5.068,-3.115 c 0,-0.603 0.489,-1.092 1.091,-1.092 0.604,0 1.092,0.489 1.092,1.092 0,0.604 -0.489,1.093 -1.092,1.093 -0.603,0 -1.091,-0.489 -1.091,-1.093 z m 86.898,-1.256 c 0,2.519 -2.041,4.561 -4.561,4.561 -2.518,0 -4.561,-2.042 -4.561,-4.561 0,-2.519 2.043,-4.561 4.561,-4.561 2.52,0 4.561,2.042 4.561,4.561 z m -12.357,-20.346 v 41.194 H 18.889 v -41.194 z m 9.347,20.827 c 0,0.636 -0.516,1.151 -1.151,1.151 h -0.845 c -0.636,0 -1.151,-0.516 -1.151,-1.151 v -0.871 c 0,-0.636 0.516,-1.151 1.151,-1.151 h 0.845 c 0.636,0 1.151,0.515 1.151,1.151 z"
       id="path1500" /><circle
       cx="54.507"
       cy="18.806"
       r="7.1680002"
       id="circle1528" /><path
       d="M 56.48,56.584 49.312,70.308 31.622,82.204 35.281,90.742 56.991,75.625 63.649,61.467 75.366374,71.687859 78.896,90.743 86.521,89.311838 82.79998,69.397717 67.916,52.011 63.65,29.743 c 0,0 -3.665,-4.573 -10.679,-1.828 l -9.759,4.876 -8.192,15.594 6.264,2.03 7.871,-12.961 4.117,-1.245 1.482,5.793 -2.756,5.336 -12.721,1.654 -0.479,7.169 16.07,-4.763 1.767,-3.359 -0.153,6.407"
       id="path1530"
       sodipodi:nodetypes="ccccccccccccccccccccccccc" /><polyline
       points="35.427,43.974 7.833,30.499 3.931,37.834 30.855,51.308 "
       id="polyline1532" /><polyline
       points="30.498,49.302 39.071,53.922 40.36,48.694 33.355,45.205 30.498,50.219 "
       id="polyline1534" /></g><g
     inkscape:groupmode="layer"
     id="g1732"
     inkscape:label="Layer 2"
     style="display:none;opacity:1"><rect
       x="-455.255"
       y="416.258"
       width="5.941"
       height="21.757999"
       id="rect1720" /><path
       d="m 3,-395.238 v 38.438 c 0,2.63 2.131,4.762 4.761,4.762 h 84.663 c 2.627,0 4.76,-2.132 4.76,-4.762 v -38.438 c 0,-2.63 -2.133,-4.762 -4.76,-4.762 H 7.761 C 5.131,-400 3,-397.868 3,-395.238 Z m 8.502,23.339 v -6.375 c 0,-0.807 0.56,-1.46 1.251,-1.46 0.69,0 1.25,0.654 1.25,1.46 v 6.375 c 0,0.807 -0.56,1.461 -1.25,1.461 -0.69,0 -1.251,-0.655 -1.251,-1.461 z m -5.068,-3.115 c 0,-0.603 0.489,-1.092 1.091,-1.092 0.604,0 1.092,0.489 1.092,1.092 0,0.604 -0.489,1.093 -1.092,1.093 -0.603,0 -1.091,-0.489 -1.091,-1.093 z m 86.898,-1.256 c 0,2.519 -2.041,4.561 -4.561,4.561 -2.518,0 -4.561,-2.042 -4.561,-4.561 0,-2.519 2.043,-4.561 4.561,-4.561 2.52,0 4.561,2.042 4.561,4.561 z m -12.357,-20.346 v 41.194 H 18.889 v -41.194 z m 9.347,20.827 c 0,0.636 -0.516,1.151 -1.151,1.151 h -0.845 c -0.636,0 -1.151,-0.516 -1.151,-1.151 v -0.871 c 0,-0.636 0.516,-1.151 1.151,-1.151 h 0.845 c 0.636,0 1.151,0.515 1.151,1.151 z"
       id="path1722" /><circle
       cx="54.507"
       cy="18.806"
       r="7.1680002"
       id="circle1724" /><path
       d="M 56.48,56.584 49.312,70.308 31.049535,71.327171 30.41505,79.578939 55.846071,78.487323 63.649,61.467 72.790283,73.977718 78.896,90.743 86.521,89.311838 79.937657,71.687576 67.916,52.011 63.65,29.743 c 0,0 -3.665,-4.573 -10.679,-1.828 l -9.759,4.876 -8.192,15.594 6.264,2.03 7.871,-12.961 4.117,-1.245 1.482,5.793 -2.756,5.336 -12.721,1.654 -0.479,7.169 16.07,-4.763 1.767,-3.359 -0.153,6.407"
       id="path1726"
       sodipodi:nodetypes="ccccccccccccccccccccccccc" /><polyline
       points="35.427,43.974 7.833,30.499 3.931,37.834 30.855,51.308 "
       id="polyline1728" /><polyline
       points="30.498,49.302 39.071,53.922 40.36,48.694 33.355,45.205 30.498,50.219 "
       id="polyline1730" /></g><g
     inkscape:groupmode="layer"
     id="g1746"
     inkscape:label="Layer 3"
     style="display:none;opacity:1"><rect
       x="-455.255"
       y="416.258"
       width="5.941"
       height="21.757999"
       id="rect1734" /><path
       d="m 3,-395.238 v 38.438 c 0,2.63 2.131,4.762 4.761,4.762 h 84.663 c 2.627,0 4.76,-2.132 4.76,-4.762 v -38.438 c 0,-2.63 -2.133,-4.762 -4.76,-4.762 H 7.761 C 5.131,-400 3,-397.868 3,-395.238 Z m 8.502,23.339 v -6.375 c 0,-0.807 0.56,-1.46 1.251,-1.46 0.69,0 1.25,0.654 1.25,1.46 v 6.375 c 0,0.807 -0.56,1.461 -1.25,1.461 -0.69,0 -1.251,-0.655 -1.251,-1.461 z m -5.068,-3.115 c 0,-0.603 0.489,-1.092 1.091,-1.092 0.604,0 1.092,0.489 1.092,1.092 0,0.604 -0.489,1.093 -1.092,1.093 -0.603,0 -1.091,-0.489 -1.091,-1.093 z m 86.898,-1.256 c 0,2.519 -2.041,4.561 -4.561,4.561 -2.518,0 -4.561,-2.042 -4.561,-4.561 0,-2.519 2.043,-4.561 4.561,-4.561 2.52,0 4.561,2.042 4.561,4.561 z m -12.357,-20.346 v 41.194 H 18.889 v -41.194 z m 9.347,20.827 c 0,0.636 -0.516,1.151 -1.151,1.151 h -0.845 c -0.636,0 -1.151,-0.516 -1.151,-1.151 v -0.871 c 0,-0.636 0.516,-1.151 1.151,-1.151 h 0.845 c 0.636,0 1.151,0.515 1.151,1.151 z"
       id="path1736" /><circle
       cx="54.507"
       cy="18.806"
       r="7.1680002"
       id="circle1738" /><path
       d="M 56.48,56.584 53.605485,71.452929 36.201717,67.033686 36.998394,75.285454 59.853324,79.34602 63.649,61.467 l 4.847798,13.655647 4.960788,15.334121 7.625,-1.717395 L 75.930404,73.40497 67.916,52.011 63.65,29.743 c 0,0 -3.665,-4.573 -10.679,-1.828 l -9.759,4.876 -8.192,15.594 6.264,2.03 7.871,-12.961 4.117,-1.245 1.482,5.793 -2.756,5.336 -12.721,1.654 -0.479,7.169 16.07,-4.763 1.767,-3.359 -0.153,6.407"
       id="path1740"
       sodipodi:nodetypes="ccccccccccccccccccccccccc" /><polyline
       points="35.427,43.974 7.833,30.499 3.931,37.834 30.855,51.308 "
       id="polyline1742" /><polyline
       points="30.498,49.302 39.071,53.922 40.36,48.694 33.355,45.205 30.498,50.219 "
       id="polyline1744" /></g><g
     inkscape:groupmode="layer"
     id="g1760"
     inkscape:label="Layer 4"
     style="display:none;opacity:1"><rect
       x="-455.255"
       y="416.258"
       width="5.941"
       height="21.757999"
       id="rect1748" /><path
       d="m 3,-395.238 v 38.438 c 0,2.63 2.131,4.762 4.761,4.762 h 84.663 c 2.627,0 4.76,-2.132 4.76,-4.762 v -38.438 c 0,-2.63 -2.133,-4.762 -4.76,-4.762 H 7.761 C 5.131,-400 3,-397.868 3,-395.238 Z m 8.502,23.339 v -6.375 c 0,-0.807 0.56,-1.46 1.251,-1.46 0.69,0 1.25,0.654 1.25,1.46 v 6.375 c 0,0.807 -0.56,1.461 -1.25,1.461 -0.69,0 -1.251,-0.655 -1.251,-1.461 z m -5.068,-3.115 c 0,-0.603 0.489,-1.092 1.091,-1.092 0.604,0 1.092,0.489 1.092,1.092 0,0.604 -0.489,1.093 -1.092,1.093 -0.603,0 -1.091,-0.489 -1.091,-1.093 z m 86.898,-1.256 c 0,2.519 -2.041,4.561 -4.561,4.561 -2.518,0 -4.561,-2.042 -4.561,-4.561 0,-2.519 2.043,-4.561 4.561,-4.561 2.52,0 4.561,2.042 4.561,4.561 z m -12.357,-20.346 v 41.194 H 18.889 v -41.194 z m 9.347,20.827 c 0,0.636 -0.516,1.151 -1.151,1.151 h -0.845 c -0.636,0 -1.151,-0.516 -1.151,-1.151 v -0.871 c 0,-0.636 0.516,-1.151 1.151,-1.151 h 0.845 c 0.636,0 1.151,0.515 1.151,1.151 z"
       id="path1750" /><circle
       cx="54.507"
       cy="18.806"
       r="7.1680002"
       id="circle1752" /><path
       d="M 56.48,56.584 57.89897,72.025394 43.071293,69.037312 42.723041,76.144151 63.860577,79.34602 63.649,61.467 65.634475,76.267576 64.011919,91.601697 70.30903,91.029233 72.217818,76.267576 67.916,52.011 63.65,29.743 c 0,0 -3.665,-4.573 -10.679,-1.828 l -9.759,4.876 -8.192,15.594 6.264,2.03 7.871,-12.961 4.117,-1.245 1.482,5.793 -2.756,5.336 -12.721,1.654 -0.479,7.169 16.07,-4.763 1.767,-3.359 -0.153,6.407"
       id="path1754"
       sodipodi:nodetypes="ccccccccccccccccccccccccc" /><polyline
       points="35.427,43.974 7.833,30.499 3.931,37.834 30.855,51.308 "
       id="polyline1756" /><polyline
       points="30.498,49.302 39.071,53.922 40.36,48.694 33.355,45.205 30.498,50.219 "
       id="polyline1758" /></g><g
     inkscape:groupmode="layer"
     id="g1774"
     inkscape:label="Layer 5"
     style="display:none;opacity:1"><rect
       x="-455.255"
       y="416.258"
       width="5.941"
       height="21.757999"
       id="rect1762" /><path
       d="m 3,-395.238 v 38.438 c 0,2.63 2.131,4.762 4.761,4.762 h 84.663 c 2.627,0 4.76,-2.132 4.76,-4.762 v -38.438 c 0,-2.63 -2.133,-4.762 -4.76,-4.762 H 7.761 C 5.131,-400 3,-397.868 3,-395.238 Z m 8.502,23.339 v -6.375 c 0,-0.807 0.56,-1.46 1.251,-1.46 0.69,0 1.25,0.654 1.25,1.46 v 6.375 c 0,0.807 -0.56,1.461 -1.25,1.461 -0.69,0 -1.251,-0.655 -1.251,-1.461 z m -5.068,-3.115 c 0,-0.603 0.489,-1.092 1.091,-1.092 0.604,0 1.092,0.489 1.092,1.092 0,0.604 -0.489,1.093 -1.092,1.093 -0.603,0 -1.091,-0.489 -1.091,-1.093 z m 86.898,-1.256 c 0,2.519 -2.041,4.561 -4.561,4.561 -2.518,0 -4.561,-2.042 -4.561,-4.561 0,-2.519 2.043,-4.561 4.561,-4.561 2.52,0 4.561,2.042 4.561,4.561 z m -12.357,-20.346 v 41.194 H 18.889 v -41.194 z m 9.347,20.827 c 0,0.636 -0.516,1.151 -1.151,1.151 h -0.845 c -0.636,0 -1.151,-0.516 -1.151,-1.151 v -0.871 c 0,-0.636 0.516,-1.151 1.151,-1.151 h 0.845 c 0.636,0 1.151,0.515 1.151,1.151 z"
       id="path1764" /><circle
       cx="54.507"
       cy="18.806"
       r="7.1680002"
       id="circle1766" /><path
       d="m 56.48,56.584 -3.44698,15.155162 -9.961727,-2.70185 -0.348252,7.106839 16.844051,3.774334 L 63.649,61.467 61.34099,75.981344 56.85611,91.029232 64.011919,91.601697 69.069262,76.267576 67.916,52.011 63.65,29.743 c 0,0 -3.665,-4.573 -10.679,-1.828 l -9.759,4.876 -8.192,15.594 6.264,2.03 7.871,-12.961 4.117,-1.245 1.482,5.793 -2.756,5.336 -12.721,1.654 -0.479,7.169 16.07,-4.763 1.767,-3.359 -0.153,6.407"
       id="path1768"
       sodipodi:nodetypes="ccccccccccccccccccccccccc" /><polyline
       points="35.427,43.974 7.833,30.499 3.931,37.834 30.855,51.308 "
       id="polyline1770" /><polyline
       points="30.498,49.302 39.071,53.922 40.36,48.694 33.355,45.205 30.498,50.219 "
       id="polyline1772" /></g><g
     inkscape:groupmode="layer"
     id="g1806"
     inkscape:label="Layer 6"
     style="display:none;opacity:1"><rect
       x="-455.255"
       y="416.258"
       width="5.941"
       height="21.757999"
       id="rect1794" /><path
       d="m 3,-395.238 v 38.438 c 0,2.63 2.131,4.762 4.761,4.762 h 84.663 c 2.627,0 4.76,-2.132 4.76,-4.762 v -38.438 c 0,-2.63 -2.133,-4.762 -4.76,-4.762 H 7.761 C 5.131,-400 3,-397.868 3,-395.238 Z m 8.502,23.339 v -6.375 c 0,-0.807 0.56,-1.46 1.251,-1.46 0.69,0 1.25,0.654 1.25,1.46 v 6.375 c 0,0.807 -0.56,1.461 -1.25,1.461 -0.69,0 -1.251,-0.655 -1.251,-1.461 z m -5.068,-3.115 c 0,-0.603 0.489,-1.092 1.091,-1.092 0.604,0 1.092,0.489 1.092,1.092 0,0.604 -0.489,1.093 -1.092,1.093 -0.603,0 -1.091,-0.489 -1.091,-1.093 z m 86.898,-1.256 c 0,2.519 -2.041,4.561 -4.561,4.561 -2.518,0 -4.561,-2.042 -4.561,-4.561 0,-2.519 2.043,-4.561 4.561,-4.561 2.52,0 4.561,2.042 4.561,4.561 z m -12.357,-20.346 v 41.194 H 18.889 v -41.194 z m 9.347,20.827 c 0,0.636 -0.516,1.151 -1.151,1.151 h -0.845 c -0.636,0 -1.151,-0.516 -1.151,-1.151 v -0.871 c 0,-0.636 0.516,-1.151 1.151,-1.151 h 0.845 c 0.636,0 1.151,0.515 1.151,1.151 z"
       id="path1796" /><circle
       cx="54.507"
       cy="18.806"
       r="7.1680002"
       id="circle1798" /><path
       d="M 56.48,56.584 59.902596,71.166697 47.937243,69.896009 47.588991,76.716616 64.146809,79.059788 63.649,61.467 56.761273,75.408879 51.131463,89.59807 56.85611,91.029232 64.775777,75.408879 67.916,52.011 63.65,29.743 c 0,0 -3.665,-4.573 -10.679,-1.828 l -9.759,4.876 -8.192,15.594 6.264,2.03 7.871,-12.961 4.117,-1.245 1.482,5.793 -2.756,5.336 -12.721,1.654 -0.479,7.169 16.07,-4.763 1.767,-3.359 -0.153,6.407"
       id="path1800"
       sodipodi:nodetypes="ccccccccccccccccccccccccc" /><polyline
       points="35.427,43.974 7.833,30.499 3.931,37.834 30.855,51.308 "
       id="polyline1802" /><polyline
       points="30.498,49.302 39.071,53.922 40.36,48.694 33.355,45.205 30.498,50.219 "
       id="polyline1804" /></g><g
     inkscape:groupmode="layer"
     id="g258"
     inkscape:label="r7"
     style="display:none;opacity:1"><rect
       x="-455.255"
       y="416.258"
       width="5.941"
       height="21.757999"
       id="rect246" /><path
       d="m 3,-395.238 v 38.438 c 0,2.63 2.131,4.762 4.761,4.762 h 84.663 c 2.627,0 4.76,-2.132 4.76,-4.762 v -38.438 c 0,-2.63 -2.133,-4.762 -4.76,-4.762 H 7.761 C 5.131,-400 3,-397.868 3,-395.238 Z m 8.502,23.339 v -6.375 c 0,-0.807 0.56,-1.46 1.251,-1.46 0.69,0 1.25,0.654 1.25,1.46 v 6.375 c 0,0.807 -0.56,1.461 -1.25,1.461 -0.69,0 -1.251,-0.655 -1.251,-1.461 z m -5.068,-3.115 c 0,-0.603 0.489,-1.092 1.091,-1.092 0.604,0 1.092,0.489 1.092,1.092 0,0.604 -0.489,1.093 -1.092,1.093 -0.603,0 -1.091,-0.489 -1.091,-1.093 z m 86.898,-1.256 c 0,2.519 -2.041,4.561 -4.561,4.561 -2.518,0 -4.561,-2.042 -4.561,-4.561 0,-2.519 2.043,-4.561 4.561,-4.561 2.52,0 4.561,2.042 4.561,4.561 z m -12.357,-20.346 v 41.194 H 18.889 v -41.194 z m 9.347,20.827 c 0,0.636 -0.516,1.151 -1.151,1.151 h -0.845 c -0.636,0 -1.151,-0.516 -1.151,-1.151 v -0.871 c 0,-0.636 0.516,-1.151 1.151,-1.151 h 0.845 c 0.636,0 1.151,0.515 1.151,1.151 z"
       id="path248" /><circle
       cx="54.507"
       cy="18.806"
       r="7.1680002"
       id="circle250" /><path
       d="M 56.48,56.584 59.902596,71.166697 48.509708,75.334423 49.592617,82.15503 66.7229,81.063414 63.649,61.467 56.761273,75.408879 51.131463,89.59807 56.85611,91.029232 67.924333,75.695111 67.916,52.011 63.65,29.743 c 0,0 -3.665,-4.573 -10.679,-1.828 l -9.759,4.876 -8.192,15.594 6.264,2.03 7.871,-12.961 4.117,-1.245 1.482,5.793 -2.756,5.336 -12.721,1.654 -0.479,7.169 16.07,-4.763 1.767,-3.359 -0.153,6.407"
       id="path252"
       sodipodi:nodetypes="ccccccccccccccccccccccccc" /><polyline
       points="35.427,43.974 7.833,30.499 3.931,37.834 30.855,51.308 "
       id="polyline254" /><polyline
       points="30.498,49.302 39.071,53.922 40.36,48.694 33.355,45.205 30.498,50.219 "
       id="polyline256" /></g><g
     inkscape:groupmode="layer"
     id="g1820"
     inkscape:label="r8"
     style="display:none;opacity:1"><rect
       x="-455.255"
       y="416.258"
       width="5.941"
       height="21.757999"
       id="rect1808" /><path
       d="m 3,-395.238 v 38.438 c 0,2.63 2.131,4.762 4.761,4.762 h 84.663 c 2.627,0 4.76,-2.132 4.76,-4.762 v -38.438 c 0,-2.63 -2.133,-4.762 -4.76,-4.762 H 7.761 C 5.131,-400 3,-397.868 3,-395.238 Z m 8.502,23.339 v -6.375 c 0,-0.807 0.56,-1.46 1.251,-1.46 0.69,0 1.25,0.654 1.25,1.46 v 6.375 c 0,0.807 -0.56,1.461 -1.25,1.461 -0.69,0 -1.251,-0.655 -1.251,-1.461 z m -5.068,-3.115 c 0,-0.603 0.489,-1.092 1.091,-1.092 0.604,0 1.092,0.489 1.092,1.092 0,0.604 -0.489,1.093 -1.092,1.093 -0.603,0 -1.091,-0.489 -1.091,-1.093 z m 86.898,-1.256 c 0,2.519 -2.041,4.561 -4.561,4.561 -2.518,0 -4.561,-2.042 -4.561,-4.561 0,-2.519 2.043,-4.561 4.561,-4.561 2.52,0 4.561,2.042 4.561,4.561 z m -12.357,-20.346 v 41.194 H 18.889 v -41.194 z m 9.347,20.827 c 0,0.636 -0.516,1.151 -1.151,1.151 h -0.845 c -0.636,0 -1.151,-0.516 -1.151,-1.151 v -0.871 c 0,-0.636 0.516,-1.151 1.151,-1.151 h 0.845 c 0.636,0 1.151,0.515 1.151,1.151 z"
       id="path1810" /><circle
       cx="54.507"
       cy="18.806"
       r="7.1680002"
       id="circle1812" /><path
       d="m 56.48,56.584 7.716081,12.865303 -2.519686,11.896 3.945234,5.389445 8.829544,-12.54091 L 63.649,61.467 56.761273,75.408879 43.689422,88.453141 51.131463,89.59807 64.775777,75.408879 67.916,52.011 63.65,29.743 c 0,0 -3.665,-4.573 -10.679,-1.828 l -9.759,4.876 -8.192,15.594 6.264,2.03 7.871,-12.961 4.117,-1.245 1.482,5.793 -2.756,5.336 -12.721,1.654 -0.479,7.169 16.07,-4.763 1.767,-3.359 -0.153,6.407"
       id="path1814"
       sodipodi:nodetypes="ccccccccccccccccccccccccc" /><polyline
       points="35.427,43.974 7.833,30.499 3.931,37.834 30.855,51.308 "
       id="polyline1816" /><polyline
       points="30.498,49.302 39.071,53.922 40.36,48.694 33.355,45.205 30.498,50.219 "
       id="polyline1818" /></g><g
     inkscape:groupmode="layer"
     id="g1834"
     inkscape:label="r9"
     style="display:inline;opacity:1"><rect
       x="-455.255"
       y="416.258"
       width="5.941"
       height="21.757999"
       id="rect1822" /><path
       d="m 3,-395.238 v 38.438 c 0,2.63 2.131,4.762 4.761,4.762 h 84.663 c 2.627,0 4.76,-2.132 4.76,-4.762 v -38.438 c 0,-2.63 -2.133,-4.762 -4.76,-4.762 H 7.761 C 5.131,-400 3,-397.868 3,-395.238 Z m 8.502,23.339 v -6.375 c 0,-0.807 0.56,-1.46 1.251,-1.46 0.69,0 1.25,0.654 1.25,1.46 v 6.375 c 0,0.807 -0.56,1.461 -1.25,1.461 -0.69,0 -1.251,-0.655 -1.251,-1.461 z m -5.068,-3.115 c 0,-0.603 0.489,-1.092 1.091,-1.092 0.604,0 1.092,0.489 1.092,1.092 0,0.604 -0.489,1.093 -1.092,1.093 -0.603,0 -1.091,-0.489 -1.091,-1.093 z m 86.898,-1.256 c 0,2.519 -2.041,4.561 -4.561,4.561 -2.518,0 -4.561,-2.042 -4.561,-4.561 0,-2.519 2.043,-4.561 4.561,-4.561 2.52,0 4.561,2.042 4.561,4.561 z m -12.357,-20.346 v 41.194 H 18.889 v -41.194 z m 9.347,20.827 c 0,0.636 -0.516,1.151 -1.151,1.151 h -0.845 c -0.636,0 -1.151,-0.516 -1.151,-1.151 v -0.871 c 0,-0.636 0.516,-1.151 1.151,-1.151 h 0.845 c 0.636,0 1.151,0.515 1.151,1.151 z"
       id="path1824" /><circle
       cx="54.507"
       cy="18.806"
       r="7.1680002"
       id="circle1826" /><path
       d="M 56.48,56.584 64.196081,69.449303 75.988012,89.646041 81.65064,90.455768 74.451173,74.193838 63.649,61.467 56.761273,75.408879 41.685796,78.148777 45.693049,83.873423 64.775777,75.408879 67.916,52.011 63.65,29.743 c 0,0 -3.665,-4.573 -10.679,-1.828 l -9.759,4.876 -8.192,15.594 6.264,2.03 7.871,-12.961 4.117,-1.245 1.482,5.793 -2.756,5.336 -12.721,1.654 -0.479,7.169 16.07,-4.763 1.767,-3.359 -0.153,6.407"
       id="path1828"
       sodipodi:nodetypes="ccccccccccccccccccccccccc" /><polyline
       points="35.427,43.974 7.833,30.499 3.931,37.834 30.855,51.308 "
       id="polyline1830" /><polyline
       points="30.498,49.302 39.071,53.922 40.36,48.694 33.355,45.205 30.498,50.219 "
       id="polyline1832" /></g><g
     inkscape:groupmode="layer"
     id="g410"
     inkscape:label="r10"
     style="display:inline;opacity:1"><rect
       x="-455.255"
       y="416.258"
       width="5.941"
       height="21.757999"
       id="rect398" /><path
       d="m 3,-395.238 v 38.438 c 0,2.63 2.131,4.762 4.761,4.762 h 84.663 c 2.627,0 4.76,-2.132 4.76,-4.762 v -38.438 c 0,-2.63 -2.133,-4.762 -4.76,-4.762 H 7.761 C 5.131,-400 3,-397.868 3,-395.238 Z m 8.502,23.339 v -6.375 c 0,-0.807 0.56,-1.46 1.251,-1.46 0.69,0 1.25,0.654 1.25,1.46 v 6.375 c 0,0.807 -0.56,1.461 -1.25,1.461 -0.69,0 -1.251,-0.655 -1.251,-1.461 z m -5.068,-3.115 c 0,-0.603 0.489,-1.092 1.091,-1.092 0.604,0 1.092,0.489 1.092,1.092 0,0.604 -0.489,1.093 -1.092,1.093 -0.603,0 -1.091,-0.489 -1.091,-1.093 z m 86.898,-1.256 c 0,2.519 -2.041,4.561 -4.561,4.561 -2.518,0 -4.561,-2.042 -4.561,-4.561 0,-2.519 2.043,-4.561 4.561,-4.561 2.52,0 4.561,2.042 4.561,4.561 z m -12.357,-20.346 v 41.194 H 18.889 v -41.194 z m 9.347,20.827 c 0,0.636 -0.516,1.151 -1.151,1.151 h -0.845 c -0.636,0 -1.151,-0.516 -1.151,-1.151 v -0.871 c 0,-0.636 0.516,-1.151 1.151,-1.151 h 0.845 c 0.636,0 1.151,0.515 1.151,1.151 z"
       id="path400" /><circle
       cx="54.507"
       cy="18.806"
       r="7.1680002"
       id="circle402" /><path
       d="M 56.48,56.584 53.03302,71.452929 36.201717,76.765586 37.284626,85.87605 56.991,75.625 63.649,61.467 74.451173,74.193838 78.896,90.743 86.521,89.311838 80.223889,71.687576 67.916,52.011 63.65,29.743 c 0,0 -3.665,-4.573 -10.679,-1.828 l -9.759,4.876 -8.192,15.594 6.264,2.03 7.871,-12.961 4.117,-1.245 1.482,5.793 -2.756,5.336 -12.721,1.654 -0.479,7.169 16.07,-4.763 1.767,-3.359 -0.153,6.407"
       id="path404"
       sodipodi:nodetypes="ccccccccccccccccccccccccc" /><polyline
       points="35.427,43.974 7.833,30.499 3.931,37.834 30.855,51.308 "
       id="polyline406" /><polyline
       points="30.498,49.302 39.071,53.922 40.36,48.694 33.355,45.205 30.498,50.219 "
       id="polyline408" /></g></svg>
