<?xml version="1.0" encoding="UTF-8"?>
<svg enable-background="new 0 0 100 100" fill="#7DF9FF" stroke="#7DF9FF" version="1.1" viewBox="0 0 100 100" xml:space="preserve" xmlns="http://www.w3.org/2000/svg" xmlns:cc="http://creativecommons.org/ns#" xmlns:dc="http://purl.org/dc/elements/1.1/" xmlns:rdf="http://www.w3.org/1999/02/22-rdf-syntax-ns#"><metadata><rdf:RDF><cc:Work rdf:about=""><dc:format>image/svg+xml</dc:format><dc:type rdf:resource="http://purl.org/dc/dcmitype/StillImage"/><dc:title/></cc:Work></rdf:RDF></metadata><g><rect x="-455.26" y="416.26" width="5.941" height="21.758"/><path d="m3-395.24v38.438c0 2.63 2.131 4.762 4.761 4.762h84.663c2.627 0 4.76-2.132 4.76-4.762v-38.438c0-2.63-2.133-4.762-4.76-4.762h-84.663c-2.63 0-4.761 2.132-4.761 4.762zm8.502 23.339v-6.375c0-0.807 0.56-1.46 1.251-1.46 0.69 0 1.25 0.654 1.25 1.46v6.375c0 0.807-0.56 1.461-1.25 1.461s-1.251-0.655-1.251-1.461zm-5.068-3.115c0-0.603 0.489-1.092 1.091-1.092 0.604 0 1.092 0.489 1.092 1.092 0 0.604-0.489 1.093-1.092 1.093s-1.091-0.489-1.091-1.093zm86.898-1.256c0 2.519-2.041 4.561-4.561 4.561-2.518 0-4.561-2.042-4.561-4.561s2.043-4.561 4.561-4.561c2.52 0 4.561 2.042 4.561 4.561zm-12.357-20.346v41.194h-62.086v-41.194zm9.347 20.827c0 0.636-0.516 1.151-1.151 1.151h-0.845c-0.636 0-1.151-0.516-1.151-1.151v-0.871c0-0.636 0.516-1.151 1.151-1.151h0.845c0.636 0 1.151 0.515 1.151 1.151z"/><circle cx="54.507" cy="18.806" r="7.168"/><path d="m56.48 56.584-7.168 13.724-17.69 11.896 3.659 8.538 21.71-15.117 6.658-14.158 11.717 10.221 3.5296 19.055 7.625-1.4312-3.721-19.914-14.884-17.387-4.266-22.268s-3.665-4.573-10.679-1.828l-9.759 4.876-8.192 15.594 6.264 2.03 7.871-12.961 4.117-1.245 1.482 5.793-2.756 5.336-12.721 1.654-0.479 7.169 16.07-4.763 1.767-3.359-0.153 6.407"/><polyline points="35.427 43.974 7.833 30.499 3.931 37.834 30.855 51.308"/><polyline points="30.498 49.302 39.071 53.922 40.36 48.694 33.355 45.205 30.498 50.219"/></g><g><rect x="-455.26" y="416.26" width="5.941" height="21.758"/><path d="m3-395.24v38.438c0 2.63 2.131 4.762 4.761 4.762h84.663c2.627 0 4.76-2.132 4.76-4.762v-38.438c0-2.63-2.133-4.762-4.76-4.762h-84.663c-2.63 0-4.761 2.132-4.761 4.762zm8.502 23.339v-6.375c0-0.807 0.56-1.46 1.251-1.46 0.69 0 1.25 0.654 1.25 1.46v6.375c0 0.807-0.56 1.461-1.25 1.461s-1.251-0.655-1.251-1.461zm-5.068-3.115c0-0.603 0.489-1.092 1.091-1.092 0.604 0 1.092 0.489 1.092 1.092 0 0.604-0.489 1.093-1.092 1.093s-1.091-0.489-1.091-1.093zm86.898-1.256c0 2.519-2.041 4.561-4.561 4.561-2.518 0-4.561-2.042-4.561-4.561s2.043-4.561 4.561-4.561c2.52 0 4.561 2.042 4.561 4.561zm-12.357-20.346v41.194h-62.086v-41.194zm9.347 20.827c0 0.636-0.516 1.151-1.151 1.151h-0.845c-0.636 0-1.151-0.516-1.151-1.151v-0.871c0-0.636 0.516-1.151 1.151-1.151h0.845c0.636 0 1.151 0.515 1.151 1.151z"/><circle cx="54.507" cy="18.806" r="7.168"/><path d="m56.48 56.584-7.168 13.724-18.262 1.0192-0.63448 8.2518 25.431-1.0916 7.8029-17.02 9.1413 12.511 6.1057 16.765 7.625-1.4312-6.5833-17.624-12.022-19.677-4.266-22.268s-3.665-4.573-10.679-1.828l-9.759 4.876-8.192 15.594 6.264 2.03 7.871-12.961 4.117-1.245 1.482 5.793-2.756 5.336-12.721 1.654-0.479 7.169 16.07-4.763 1.767-3.359-0.153 6.407"/><polyline points="35.427 43.974 7.833 30.499 3.931 37.834 30.855 51.308"/><polyline points="30.498 49.302 39.071 53.922 40.36 48.694 33.355 45.205 30.498 50.219"/></g><g><rect x="-455.26" y="416.26" width="5.941" height="21.758"/><path d="m3-395.24v38.438c0 2.63 2.131 4.762 4.761 4.762h84.663c2.627 0 4.76-2.132 4.76-4.762v-38.438c0-2.63-2.133-4.762-4.76-4.762h-84.663c-2.63 0-4.761 2.132-4.761 4.762zm8.502 23.339v-6.375c0-0.807 0.56-1.46 1.251-1.46 0.69 0 1.25 0.654 1.25 1.46v6.375c0 0.807-0.56 1.461-1.25 1.461s-1.251-0.655-1.251-1.461zm-5.068-3.115c0-0.603 0.489-1.092 1.091-1.092 0.604 0 1.092 0.489 1.092 1.092 0 0.604-0.489 1.093-1.092 1.093s-1.091-0.489-1.091-1.093zm86.898-1.256c0 2.519-2.041 4.561-4.561 4.561-2.518 0-4.561-2.042-4.561-4.561s2.043-4.561 4.561-4.561c2.52 0 4.561 2.042 4.561 4.561zm-12.357-20.346v41.194h-62.086v-41.194zm9.347 20.827c0 0.636-0.516 1.151-1.151 1.151h-0.845c-0.636 0-1.151-0.516-1.151-1.151v-0.871c0-0.636 0.516-1.151 1.151-1.151h0.845c0.636 0 1.151 0.515 1.151 1.151z"/><circle cx="54.507" cy="18.806" r="7.168"/><path d="m56.48 56.584-2.8745 14.869-17.404-4.4192 0.79668 8.2518 22.855 4.0606 3.7957-17.879 4.8478 13.656 4.9608 15.334 7.625-1.7174-5.1522-15.334-8.0144-21.394-4.266-22.268s-3.665-4.573-10.679-1.828l-9.759 4.876-8.192 15.594 6.264 2.03 7.871-12.961 4.117-1.245 1.482 5.793-2.756 5.336-12.721 1.654-0.479 7.169 16.07-4.763 1.767-3.359-0.153 6.407"/><polyline points="35.427 43.974 7.833 30.499 3.931 37.834 30.855 51.308"/><polyline points="30.498 49.302 39.071 53.922 40.36 48.694 33.355 45.205 30.498 50.219"/></g><g><rect x="-455.26" y="416.26" width="5.941" height="21.758"/><path d="m3-395.24v38.438c0 2.63 2.131 4.762 4.761 4.762h84.663c2.627 0 4.76-2.132 4.76-4.762v-38.438c0-2.63-2.133-4.762-4.76-4.762h-84.663c-2.63 0-4.761 2.132-4.761 4.762zm8.502 23.339v-6.375c0-0.807 0.56-1.46 1.251-1.46 0.69 0 1.25 0.654 1.25 1.46v6.375c0 0.807-0.56 1.461-1.25 1.461s-1.251-0.655-1.251-1.461zm-5.068-3.115c0-0.603 0.489-1.092 1.091-1.092 0.604 0 1.092 0.489 1.092 1.092 0 0.604-0.489 1.093-1.092 1.093s-1.091-0.489-1.091-1.093zm86.898-1.256c0 2.519-2.041 4.561-4.561 4.561-2.518 0-4.561-2.042-4.561-4.561s2.043-4.561 4.561-4.561c2.52 0 4.561 2.042 4.561 4.561zm-12.357-20.346v41.194h-62.086v-41.194zm9.347 20.827c0 0.636-0.516 1.151-1.151 1.151h-0.845c-0.636 0-1.151-0.516-1.151-1.151v-0.871c0-0.636 0.516-1.151 1.151-1.151h0.845c0.636 0 1.151 0.515 1.151 1.151z"/><circle cx="54.507" cy="18.806" r="7.168"/><path d="m56.48 56.584 1.419 15.441-14.828-2.9881-0.34825 7.1068 21.138 3.2019-0.21158-17.879 1.9855 14.801-1.6226 15.334 6.2971-0.57246 1.9088-14.762-4.3018-24.257-4.266-22.268s-3.665-4.573-10.679-1.828l-9.759 4.876-8.192 15.594 6.264 2.03 7.871-12.961 4.117-1.245 1.482 5.793-2.756 5.336-12.721 1.654-0.479 7.169 16.07-4.763 1.767-3.359-0.153 6.407"/><polyline points="35.427 43.974 7.833 30.499 3.931 37.834 30.855 51.308"/><polyline points="30.498 49.302 39.071 53.922 40.36 48.694 33.355 45.205 30.498 50.219"/></g><g><rect x="-455.26" y="416.26" width="5.941" height="21.758"/><path d="m3-395.24v38.438c0 2.63 2.131 4.762 4.761 4.762h84.663c2.627 0 4.76-2.132 4.76-4.762v-38.438c0-2.63-2.133-4.762-4.76-4.762h-84.663c-2.63 0-4.761 2.132-4.761 4.762zm8.502 23.339v-6.375c0-0.807 0.56-1.46 1.251-1.46 0.69 0 1.25 0.654 1.25 1.46v6.375c0 0.807-0.56 1.461-1.25 1.461s-1.251-0.655-1.251-1.461zm-5.068-3.115c0-0.603 0.489-1.092 1.091-1.092 0.604 0 1.092 0.489 1.092 1.092 0 0.604-0.489 1.093-1.092 1.093s-1.091-0.489-1.091-1.093zm86.898-1.256c0 2.519-2.041 4.561-4.561 4.561-2.518 0-4.561-2.042-4.561-4.561s2.043-4.561 4.561-4.561c2.52 0 4.561 2.042 4.561 4.561zm-12.357-20.346v41.194h-62.086v-41.194zm9.347 20.827c0 0.636-0.516 1.151-1.151 1.151h-0.845c-0.636 0-1.151-0.516-1.151-1.151v-0.871c0-0.636 0.516-1.151 1.151-1.151h0.845c0.636 0 1.151 0.515 1.151 1.151z"/><circle cx="54.507" cy="18.806" r="7.168"/><path d="m56.48 56.584-3.447 15.155-9.9617-2.7018-0.34825 7.1068 16.844 3.7743 4.0819-18.451-2.308 14.514-4.4849 15.048 7.1558 0.57246 5.0573-15.334-1.1533-24.257-4.266-22.268s-3.665-4.573-10.679-1.828l-9.759 4.876-8.192 15.594 6.264 2.03 7.871-12.961 4.117-1.245 1.482 5.793-2.756 5.336-12.721 1.654-0.479 7.169 16.07-4.763 1.767-3.359-0.153 6.407"/><polyline points="35.427 43.974 7.833 30.499 3.931 37.834 30.855 51.308"/><polyline points="30.498 49.302 39.071 53.922 40.36 48.694 33.355 45.205 30.498 50.219"/></g><g><rect x="-455.26" y="416.26" width="5.941" height="21.758"/><path d="m3-395.24v38.438c0 2.63 2.131 4.762 4.761 4.762h84.663c2.627 0 4.76-2.132 4.76-4.762v-38.438c0-2.63-2.133-4.762-4.76-4.762h-84.663c-2.63 0-4.761 2.132-4.761 4.762zm8.502 23.339v-6.375c0-0.807 0.56-1.46 1.251-1.46 0.69 0 1.25 0.654 1.25 1.46v6.375c0 0.807-0.56 1.461-1.25 1.461s-1.251-0.655-1.251-1.461zm-5.068-3.115c0-0.603 0.489-1.092 1.091-1.092 0.604 0 1.092 0.489 1.092 1.092 0 0.604-0.489 1.093-1.092 1.093s-1.091-0.489-1.091-1.093zm86.898-1.256c0 2.519-2.041 4.561-4.561 4.561-2.518 0-4.561-2.042-4.561-4.561s2.043-4.561 4.561-4.561c2.52 0 4.561 2.042 4.561 4.561zm-12.357-20.346v41.194h-62.086v-41.194zm9.347 20.827c0 0.636-0.516 1.151-1.151 1.151h-0.845c-0.636 0-1.151-0.516-1.151-1.151v-0.871c0-0.636 0.516-1.151 1.151-1.151h0.845c0.636 0 1.151 0.515 1.151 1.151z"/><circle cx="54.507" cy="18.806" r="7.168"/><path d="m56.48 56.584 3.4226 14.583-11.965-1.2707-0.34825 6.8206 16.558 2.3432-0.49781-17.593-6.8877 13.942-5.6298 14.189 5.7246 1.4312 7.9197-15.62 3.1402-23.398-4.266-22.268s-3.665-4.573-10.679-1.828l-9.759 4.876-8.192 15.594 6.264 2.03 7.871-12.961 4.117-1.245 1.482 5.793-2.756 5.336-12.721 1.654-0.479 7.169 16.07-4.763 1.767-3.359-0.153 6.407"/><polyline points="35.427 43.974 7.833 30.499 3.931 37.834 30.855 51.308"/><polyline points="30.498 49.302 39.071 53.922 40.36 48.694 33.355 45.205 30.498 50.219"/></g><g><rect x="-455.26" y="416.26" width="5.941" height="21.758"/><path d="m3-395.24v38.438c0 2.63 2.131 4.762 4.761 4.762h84.663c2.627 0 4.76-2.132 4.76-4.762v-38.438c0-2.63-2.133-4.762-4.76-4.762h-84.663c-2.63 0-4.761 2.132-4.761 4.762zm8.502 23.339v-6.375c0-0.807 0.56-1.46 1.251-1.46 0.69 0 1.25 0.654 1.25 1.46v6.375c0 0.807-0.56 1.461-1.25 1.461s-1.251-0.655-1.251-1.461zm-5.068-3.115c0-0.603 0.489-1.092 1.091-1.092 0.604 0 1.092 0.489 1.092 1.092 0 0.604-0.489 1.093-1.092 1.093s-1.091-0.489-1.091-1.093zm86.898-1.256c0 2.519-2.041 4.561-4.561 4.561-2.518 0-4.561-2.042-4.561-4.561s2.043-4.561 4.561-4.561c2.52 0 4.561 2.042 4.561 4.561zm-12.357-20.346v41.194h-62.086v-41.194zm9.347 20.827c0 0.636-0.516 1.151-1.151 1.151h-0.845c-0.636 0-1.151-0.516-1.151-1.151v-0.871c0-0.636 0.516-1.151 1.151-1.151h0.845c0.636 0 1.151 0.515 1.151 1.151z"/><circle cx="54.507" cy="18.806" r="7.168"/><path d="m56.48 56.584 7.7161 12.865-2.5197 11.896 3.9452 5.3894 8.8295-12.541-10.802-12.727-6.8877 13.942-13.072 13.044 7.442 1.1449 13.644-14.189 3.1402-23.398-4.266-22.268s-3.665-4.573-10.679-1.828l-9.759 4.876-8.192 15.594 6.264 2.03 7.871-12.961 4.117-1.245 1.482 5.793-2.756 5.336-12.721 1.654-0.479 7.169 16.07-4.763 1.767-3.359-0.153 6.407"/><polyline points="35.427 43.974 7.833 30.499 3.931 37.834 30.855 51.308"/><polyline points="30.498 49.302 39.071 53.922 40.36 48.694 33.355 45.205 30.498 50.219"/></g><g><rect x="-455.26" y="416.26" width="5.941" height="21.758"/><path d="m3-395.24v38.438c0 2.63 2.131 4.762 4.761 4.762h84.663c2.627 0 4.76-2.132 4.76-4.762v-38.438c0-2.63-2.133-4.762-4.76-4.762h-84.663c-2.63 0-4.761 2.132-4.761 4.762zm8.502 23.339v-6.375c0-0.807 0.56-1.46 1.251-1.46 0.69 0 1.25 0.654 1.25 1.46v6.375c0 0.807-0.56 1.461-1.25 1.461s-1.251-0.655-1.251-1.461zm-5.068-3.115c0-0.603 0.489-1.092 1.091-1.092 0.604 0 1.092 0.489 1.092 1.092 0 0.604-0.489 1.093-1.092 1.093s-1.091-0.489-1.091-1.093zm86.898-1.256c0 2.519-2.041 4.561-4.561 4.561-2.518 0-4.561-2.042-4.561-4.561s2.043-4.561 4.561-4.561c2.52 0 4.561 2.042 4.561 4.561zm-12.357-20.346v41.194h-62.086v-41.194zm9.347 20.827c0 0.636-0.516 1.151-1.151 1.151h-0.845c-0.636 0-1.151-0.516-1.151-1.151v-0.871c0-0.636 0.516-1.151 1.151-1.151h0.845c0.636 0 1.151 0.515 1.151 1.151z"/><circle cx="54.507" cy="18.806" r="7.168"/><path d="m56.48 56.584 7.7161 12.865 11.792 20.197 5.6626 0.80973-7.1995-16.262-10.802-12.727-6.8877 13.942-15.075 2.7399 4.0073 5.7246 19.083-8.4645 3.1402-23.398-4.266-22.268s-3.665-4.573-10.679-1.828l-9.759 4.876-8.192 15.594 6.264 2.03 7.871-12.961 4.117-1.245 1.482 5.793-2.756 5.336-12.721 1.654-0.479 7.169 16.07-4.763 1.767-3.359-0.153 6.407"/><polyline points="35.427 43.974 7.833 30.499 3.931 37.834 30.855 51.308"/><polyline points="30.498 49.302 39.071 53.922 40.36 48.694 33.355 45.205 30.498 50.219"/></g></svg>
