<?xml version="1.0" encoding="UTF-8" standalone="no"?>
<svg
   xmlns:dc="http://purl.org/dc/elements/1.1/"
   xmlns:cc="http://creativecommons.org/ns#"
   xmlns:rdf="http://www.w3.org/1999/02/22-rdf-syntax-ns#"
   xmlns:svg="http://www.w3.org/2000/svg"
   xmlns="http://www.w3.org/2000/svg"
   xmlns:sodipodi="http://sodipodi.sourceforge.net/DTD/sodipodi-0.dtd"
   xmlns:inkscape="http://www.inkscape.org/namespaces/inkscape"
   version="1.1"
   x="0px"
   y="0px"
   viewBox="0 0 100 100"
   stroke="#7DF9FF"
   fill="#7DF9FF"
   enable-background="new 0 0 100 100"
   xml:space="preserve"
   id="svg1536"
   sodipodi:docname="player.svg"
   inkscape:version="1.0.2 (e86c8708, 2021-01-15)"><metadata
     id="metadata1542"><rdf:RDF><cc:Work
         rdf:about=""><dc:format>image/svg+xml</dc:format><dc:type
           rdf:resource="http://purl.org/dc/dcmitype/StillImage" /></cc:Work></rdf:RDF></metadata><defs
     id="defs1540" /><sodipodi:namedview
     pagecolor="#ffffff"
     bordercolor="#666666"
     borderopacity="1"
     objecttolerance="10"
     gridtolerance="10"
     guidetolerance="10"
     inkscape:pageopacity="0"
     inkscape:pageshadow="2"
     inkscape:window-width="1260"
     inkscape:window-height="751"
     id="namedview1538"
     showgrid="false"
     inkscape:zoom="3.4936653"
     inkscape:cx="100.34941"
     inkscape:cy="68.863889"
     inkscape:window-x="0"
     inkscape:window-y="25"
     inkscape:window-maximized="0"
     inkscape:current-layer="svg1536" /><rect
     x="-455.255"
     y="416.258"
     width="5.941"
     height="21.758"
     id="rect1486" /><path
     d="M3-395.238v38.438c0,2.63,2.131,4.762,4.761,4.762h84.663c2.627,0,4.76-2.132,4.76-4.762v-38.438  c0-2.63-2.133-4.762-4.76-4.762H7.761C5.131-400,3-397.868,3-395.238z M11.502-371.899v-6.375c0-0.807,0.56-1.46,1.251-1.46  c0.69,0,1.25,0.654,1.25,1.46v6.375c0,0.807-0.56,1.461-1.25,1.461C12.063-370.438,11.502-371.093,11.502-371.899z M6.434-375.014  c0-0.603,0.489-1.092,1.091-1.092c0.604,0,1.092,0.489,1.092,1.092c0,0.604-0.489,1.093-1.092,1.093  C6.922-373.921,6.434-374.41,6.434-375.014z M93.332-376.27c0,2.519-2.041,4.561-4.561,4.561c-2.518,0-4.561-2.042-4.561-4.561  c0-2.519,2.043-4.561,4.561-4.561C91.291-380.831,93.332-378.789,93.332-376.27z M80.975-396.616v41.194H18.889v-41.194H80.975z   M90.322-375.789c0,0.636-0.516,1.151-1.151,1.151h-0.845c-0.636,0-1.151-0.516-1.151-1.151v-0.871c0-0.636,0.516-1.151,1.151-1.151  h0.845c0.636,0,1.151,0.515,1.151,1.151V-375.789z"
     id="path1500" /><circle
     cx="54.507"
     cy="18.806"
     r="7.168"
     id="circle1528" /><path
     d="M56.48,56.584l-7.168,13.724l-17.69,11.896l3.659,8.538l21.71-15.117l6.658-14.158l13.721,7.931l1.526,21.345h7.625V64.818  L67.916,52.011L63.65,29.743c0,0-3.665-4.573-10.679-1.828l-9.759,4.876L35.02,48.385l6.264,2.03l7.871-12.961l4.117-1.245  l1.482,5.793l-2.756,5.336l-12.721,1.654l-0.479,7.169l16.07-4.763l1.767-3.359l-0.153,6.407"
     id="path1530" /><polyline
     points="35.427,43.974 7.833,30.499 3.931,37.834 30.855,51.308 "
     id="polyline1532" /><polyline
     points="30.498,49.302 39.071,53.922 40.36,48.694 33.355,45.205 30.498,50.219 "
     id="polyline1534" /></svg>
