<svg xmlns:dc="http://purl.org/dc/elements/1.1/" xmlns:cc="http://creativecommons.org/ns#" xmlns:rdf="http://www.w3.org/1999/02/22-rdf-syntax-ns#" xmlns:svg="http://www.w3.org/2000/svg" xmlns="http://www.w3.org/2000/svg" xmlns:sodipodi="http://sodipodi.sourceforge.net/DTD/sodipodi-0.dtd" xmlns:inkscape="http://www.inkscape.org/namespaces/inkscape" version="1.1" x="0px" y="0px" viewBox="0 0 100 100" stroke="#7DF9FF" fill="#7DF9FF" enable-background="new 0 0 100 100" xml:space="preserve" id="svg1536" sodipodi:docname="playerrunt-inkscape.tar" inkscape:version="1.0.2 (e86c8708, 2021-01-15)"><metadata id="metadata1542"><rdf:RDF><cc:Work rdf:about=""><dc:format>image/svg+xml</dc:format><dc:type rdf:resource="http://purl.org/dc/dcmitype/StillImage"/><dc:title/></cc:Work></rdf:RDF></metadata><defs id="defs1540"/><sodipodi:namedview pagecolor="#ffffff" bordercolor="#666666" borderopacity="1" objecttolerance="10" gridtolerance="10" guidetolerance="10" inkscape:pageopacity="0" inkscape:pageshadow="2" inkscape:window-width="1238" inkscape:window-height="847" id="namedview1538" showgrid="false" inkscape:zoom="3.4936653" inkscape:cx="18.48696" inkscape:cy="68.863889" inkscape:window-x="0" inkscape:window-y="26" inkscape:window-maximized="0" inkscape:current-layer="layer3" inkscape:document-rotation="0"/><svg:g inkscape:groupmode="layer" id="g1774" inkscape:label="r5" style="display:inline;opacity:1"><svg:rect x="-455.255" y="416.258" width="5.941" height="21.757999" id="rect1762"/><svg:path d="m 3,-395.238 v 38.438 c 0,2.63 2.131,4.762 4.761,4.762 h 84.663 c 2.627,0 4.76,-2.132 4.76,-4.762 v -38.438 c 0,-2.63 -2.133,-4.762 -4.76,-4.762 H 7.761 C 5.131,-400 3,-397.868 3,-395.238 Z m 8.502,23.339 v -6.375 c 0,-0.807 0.56,-1.46 1.251,-1.46 0.69,0 1.25,0.654 1.25,1.46 v 6.375 c 0,0.807 -0.56,1.461 -1.25,1.461 -0.69,0 -1.251,-0.655 -1.251,-1.461 z m -5.068,-3.115 c 0,-0.603 0.489,-1.092 1.091,-1.092 0.604,0 1.092,0.489 1.092,1.092 0,0.604 -0.489,1.093 -1.092,1.093 -0.603,0 -1.091,-0.489 -1.091,-1.093 z m 86.898,-1.256 c 0,2.519 -2.041,4.561 -4.561,4.561 -2.518,0 -4.561,-2.042 -4.561,-4.561 0,-2.519 2.043,-4.561 4.561,-4.561 2.52,0 4.561,2.042 4.561,4.561 z m -12.357,-20.346 v 41.194 H 18.889 v -41.194 z m 9.347,20.827 c 0,0.636 -0.516,1.151 -1.151,1.151 h -0.845 c -0.636,0 -1.151,-0.516 -1.151,-1.151 v -0.871 c 0,-0.636 0.516,-1.151 1.151,-1.151 h 0.845 c 0.636,0 1.151,0.515 1.151,1.151 z" id="path1764"/><svg:circle cx="54.507" cy="18.806" r="7.1680002" id="circle1766"/><svg:path d="m 56.48,56.584 -3.44698,15.155162 -9.961727,-2.70185 -0.348252,7.106839 16.844051,3.774334 L 63.649,61.467 61.34099,75.981344 56.85611,91.029232 64.011919,91.601697 69.069262,76.267576 67.916,52.011 63.65,29.743 c 0,0 -3.665,-4.573 -10.679,-1.828 l -9.759,4.876 -8.192,15.594 6.264,2.03 7.871,-12.961 4.117,-1.245 1.482,5.793 -2.756,5.336 -12.721,1.654 -0.479,7.169 16.07,-4.763 1.767,-3.359 -0.153,6.407" id="path1768" sodipodi:nodetypes="ccccccccccccccccccccccccc"/><svg:polyline points="35.427,43.974 7.833,30.499 3.931,37.834 30.855,51.308 " id="polyline1770"/><svg:polyline points="30.498,49.302 39.071,53.922 40.36,48.694 33.355,45.205 30.498,50.219 " id="polyline1772"/></svg:g></svg>